# AST/ASF file generated using VICON BodyLanguage
# -----------------------------------------------
:version 1.10
:name VICON
:units
  mass 1.0
  length 0.45
  angle deg
:documentation
   .ast/.asf automatically generated from VICON data using
   VICON BodyBuilder and BodyLanguage model FoxedUp or BRILLIANT.MOD
:root
   order TX TY TZ RX RY RZ
   axis XYZ
   position 0 0 0  
   orientation 0 0 0 
:bonedata
  begin
     id 1 
     name lhipjoint
     direction 0.547975 -0.797114 0.253638 
     length 2.36201 
     axis 0 0 0  XYZ
  end
  begin
     id 2 
     name lfemur
     direction 0.34202 -0.939693 0  
     length 7.69075  
     axis 0 0 20  XYZ
    dof rx ry rz
    limits (-160.0 20.0)
           (-70.0 70.0)
           (-60.0 70.0)
  end
  begin
     id 3 
     name ltibia
     direction 0.34202 -0.939693 0   
     length 7.91399   
     axis 0 0 20   XYZ
    dof rx
    limits (-10.0 170.0)
  end
  begin
     id 4 
     name lfoot
     direction 0.0705293 -0.193778 0.978507   
     length 2.13618   
     axis -90 7.62852e-016 20   XYZ
    dof rx rz
    limits (-45.0 90.0)
           (-70.0 20.0)
  end
  begin
     id 5 
     name ltoes
     direction 1.53592e-011 -4.21925e-011 1   
     length 1.07518   
     axis -90 7.62852e-016 20   XYZ
    dof rx
    limits (-90.0 20.0)
  end
  begin
     id 6 
     name rhipjoint
     direction -0.57 -0.782963 0.249136   
     length 2.4047  
     axis 0 0 0  XYZ 
  end
  begin
     id 7 
     name rfemur
     direction -0.34202 -0.939693 0   
     length 7.51486   
     axis 0 0 -20   XYZ
    dof rx ry rz
    limits (-160.0 20.0)
           (-70.0 70.0)
           (-70.0 60.0)
  end
  begin
     id 8 
     name rtibia
     direction -0.34202 -0.939693 0   
     length 8.08317   
     axis 0 0 -20   XYZ
    dof rx
    limits (-10.0 170.0)
 end
 begin
     id 9 
     name rfoot
     direction -0.104954 -0.281256 0.953876   
     length 2.30343  
     axis -90 -7.62852e-016 -20   XYZ
    dof rx rz
    limits (-45.0 90.0)
           (-20.0 70.0)
  end
  begin
     id 10 
     name rtoes
     direction -1.53556e-011 -4.21922e-011 1   
     length 1.14803   
     axis -90 -7.62852e-016 -20   XYZ
    dof rx
    limits (-90.0 20.0)
  end
  begin
     id 11 
     name lowerback
     direction -0.0152855 0.99353 -0.11254   
     length 2.05311   
     axis 0 0 0   XYZ
    dof rx ry rz
    limits (-20.0 45.0)
           (-30.0 30.0)
           (-30.0 30.0)
  end
  begin
     id 12 
     name upperback
     direction -0.00157509 0.999443 -0.033332   
     length 2.06353   
     axis 0 0 0   XYZ
    dof rx ry rz
    limits (-20.0 45.0)
           (-30.0 30.0)
           (-30.0 30.0)
  end
  begin
     id 13 
     name thorax
     direction 0.00577788 0.999804 0.0189484   
     length 2.08472   
     axis 0 0 0   XYZ
    dof rx ry rz
    limits (-20.0 45.0)
           (-30.0 30.0)
           (-30.0 30.0)
  end
  begin
     id 14 
     name lowerneck
     direction -1.09301e-005 0.994719 0.10264   
     length 1.76249   
     axis 0 0 0   XYZ
    dof rx ry rz
    limits (-20.0 45.0)
           (-30.0 30.0)
           (-30.0 30.0)
  end
  begin
     id 15 
     name upperneck
     direction 0.0495018 0.988526 -0.142706   
     length 1.77897   
     axis 0 0 0   XYZ
    dof rx ry rz
    limits (-20.0 45.0)
           (-30.0 30.0)
           (-30.0 30.0)
  end
  begin
     id 16
     name head
     direction 0.0142736 0.998114 -0.0597101  
     length 1.78934  
     axis 0 0 0   XYZ
    dof rx ry rz
    limits (-20.0 45.0)
           (-30.0 30.0)
           (-30.0 30.0)
  end
  begin
     id 17 
     name lclavicle
     direction 0.918111 0.396107 -0.0130883  
     length 3.37276  
     axis 0 0 0   XYZ
    dof ry rz
    limits (-20.0 10.0)
           (0.0 20.0)
  end
  begin
     id 18 
     name lhumerus
     direction 1 -4.48975e-011 -3.26108e-027   
     length 5.34298   
     axis 180 -30 -90   XYZ
    dof rx ry rz
    limits (-60.0 90.0)
           (-90.0 90.0)
           (-90.0 90.0)
  end
  begin
     id 19
     name lradius
     direction 1 -4.48964e-011 -8.84413e-028   
     length 3.67262   
     axis 180 -30 -90   XYZ
    dof rx
    limits (-10.0 170.0)
  end
  begin
     id 20
     name lwrist
     direction 1 -4.48991e-011 -1.24264e-027   
     length 1.83631   
     axis -2.17013e-015 90 90   XYZ
    dof ry
    limits (-180.0 0.0)
 end
  begin
     id 21 
     name lhand
     direction 1 -4.48855e-011 -2.48528e-027   
     length 0.599298   
     axis 1.58582e-015 90 90   XYZ
    dof rx rz
    limits (-90.0 90.0)
           (-45.0 45.0)
  end
  begin
     id 22 
     name lfingers
     direction 1 -4.48811e-011 -4.97056e-027   
     length 0.48317   
     axis 3.17164e-015 90 90   XYZ
    dof rx
    limits (0.0 90.0)
  end
  begin
     id 23
     name lthumb
     direction 0.707107 -6.34882e-011 0.707107   
     length 0.693738   
     axis -90 45 2.85299e-015   XYZ
    dof rx rz
    limits (-45.0 45.0)
           (-45.0 45.0)
  end
  begin
     id 24 
     name rclavicle
     direction -0.920511 0.384752 -0.0680135   
     length 3.43787  
     axis 0 0 0   XYZ 
    dof ry rz
    limits (-10.0 20.0)
           (-20.0 0.0)
  end
  begin
     id 25 
     name rhumerus
     direction -0.999976 -0.00330524 0.00603274  
     length 5.5498   
     axis 180 30 90   XYZ
    dof rx ry rz
    limits (-90.0 60.0)
           (-90.0 90.0)
           (-90.0 90.0)
  end
  begin
     id 26 
     name rradius
     direction -1 -4.48967e-011 8.62438e-027   
     length 3.69401   
     axis 180 30 90   XYZ
    dof rx
    limits (-10.0 170.0)
  end
  begin
     id 27 
     name rwrist
     direction -1 -4.4897e-011 9.54866e-027   
     length 1.84701   
     axis -7.69462e-015 -90 -90   XYZ
    dof ry
    limits (-180.0 0.0)
  end
  begin
     id 28
     name rhand
     direction -1 -4.48982e-011 1.90973e-026   
     length 0.638113   
     axis -1.21857e-014 -90 -90   XYZ
    dof rx rz
    limits (-90.0 90.0)
           (-45.0 45.0)
  end
  begin
     id 29
     name rfingers
     direction -1 -4.48936e-011 3.81946e-026   
     length 0.514463   
     axis -2.43714e-014 -90 -90   XYZ
    dof rx
    limits (0.0 90.0)
  end
  begin
     id 30
     name rthumb
     direction -0.707107 -6.34942e-011 0.707107   
     length 0.738669   
     axis -90 -45 -2.85299e-015   XYZ
    dof rx rz
    limits (-45.0 45.0)
           (-45.0 45.0)
  end
:hierarchy
  begin
    root lhipjoint rhipjoint lowerback
    lhipjoint lfemur
    lfemur ltibia
    ltibia lfoot
    lfoot ltoes
    rhipjoint rfemur
    rfemur rtibia
    rtibia rfoot
    rfoot rtoes
    lowerback upperback
    upperback thorax
    thorax lowerneck lclavicle rclavicle
    lowerneck upperneck
    upperneck head
    lclavicle lhumerus
    lhumerus lradius
    lradius lwrist
    lwrist lhand lthumb
    lhand lfingers
    rclavicle rhumerus
    rhumerus rradius
    rradius rwrist
    rwrist rhand rthumb
    rhand rfingers
  end

#!OML:ASF F:\twosubjects\two\Thursday\Session 1\Rory.ASF
:FULLY-SPECIFIED
:DEGREES
235
root 10.0012 12.5713 12.0985 -155.411 -40.5297 169.513
lowerback 28.9128 -1.29016 -1.52221
upperback 7.91558 -3.61599 -2.81602
thorax -7.14169 -2.21687 -0.960857
lowerneck -8.25878 -15.2141 -10.1202
upperneck -5.2553 -20.8787 28.1689
head 4.19647 -10.4588 8.3854
rclavicle -1.0148e-013 -5.76476e-015
rhumerus 28.7085 -7.81986 -60.9106
rradius 121.227
rwrist -5.30036
rhand 9.22021 3.70481
rfingers 7.12502
rthumb 34.3864 -22.9924
lclavicle -1.0148e-013 -5.76476e-015
lhumerus 8.26952 -65.6472 75.5348
lradius 99.9998
lwrist -1.18448
lhand -27.8639 70.152
lfingers 7.12502
lthumb -1.25447 -100.128
rfemur -9.13537 1.09307 -5.34443
rtibia 83.7445
rfoot -19.85 -1.44954
rtoes -34.7848
lfemur -91.1509 11.9344 -16.595
ltibia 84.9872
lfoot -4.03337 -21.643
ltoes 13.6244
236
root 9.99264 12.5618 12.105 -155.083 -40.391 169.213
lowerback 28.8084 -1.2364 -1.76972
upperback 7.80076 -3.61024 -2.91665
thorax -7.21432 -2.20487 -0.933643
lowerneck -8.01998 -15.184 -10.1587
upperneck -5.29084 -20.8477 28.2695
head 4.1592 -10.4621 8.44698
rclavicle 4.07509e-014 -5.20816e-014
rhumerus 27.2228 -7.35666 -61.3897
rradius 122.339
rwrist -4.51426
rhand 9.30594 4.56107
rfingers 7.12502
rthumb 34.4678 -22.1176
lclavicle 4.07509e-014 -5.20816e-014
lhumerus 8.2255 -65.7379 75.6757
lradius 99.8322
lwrist -1.11852
lhand -27.6632 69.9882
lfingers 7.12502
lthumb -1.06067 -99.9653
rfemur -9.25371 1.37118 -5.47684
rtibia 83.809
rfoot -19.7984 -2.20976
rtoes -35.5809
lfemur -91.3568 11.9187 -16.9398
ltibia 85.106
lfoot -4.41756 -21.4383
ltoes 12.2772
237
root 9.983 12.5489 12.1143 -155.005 -40.5235 169.449
lowerback 28.5515 -1.28113 -1.56531
upperback 7.68742 -3.56274 -2.82914
thorax -7.22191 -2.17096 -0.977056
lowerneck -7.85731 -15.1498 -10.2766
upperneck -5.31926 -20.787 28.2814
head 4.12709 -10.4413 8.49192
rclavicle -7.35503e-015 4.14466e-014
rhumerus 26.1356 -8.11393 -60.9908
rradius 123.004
rwrist -5.1873
rhand 9.63426 4.90833
rfingers 7.12502
rthumb 34.7794 -21.699
lclavicle -7.35503e-015 4.14466e-014
lhumerus 8.12966 -65.7791 76.0332
lradius 99.6704
lwrist -1.10612
lhand -27.6143 69.7395
lfingers 7.12502
lthumb -1.01336 -99.7168
rfemur -9.45739 1.63636 -4.965
rtibia 83.8665
rfoot -19.7069 -2.88956
rtoes -35.5367
lfemur -91.7779 11.9358 -16.8665
ltibia 85.2131
lfoot -4.7103 -21.3141
ltoes 10.5982
238
root 9.97156 12.5595 12.1226 -155.133 -40.5277 169.561
lowerback 28.5335 -1.22037 -1.50228
upperback 7.73978 -3.46394 -2.75764
thorax -7.15144 -2.1276 -0.969136
lowerneck -7.93098 -15.1382 -10.4378
upperneck -5.28546 -20.7583 28.3037
head 4.16569 -10.4143 8.52049
rclavicle 9.19379e-015 4.80065e-014
rhumerus 25.9244 -8.41149 -60.8431
rradius 122.828
rwrist -5.17313
rhand 9.40256 5.3088
rfingers 7.12502
rthumb 34.5595 -21.349
lclavicle 9.19379e-015 4.80065e-014
lhumerus 8.55685 -65.7805 75.9726
lradius 99.5253
lwrist -1.07284
lhand -27.6121 69.6614
lfingers 7.12502
lthumb -1.01128 -99.6388
rfemur -9.44869 1.84009 -4.7688
rtibia 83.8489
rfoot -19.7311 -3.09229
rtoes -34.7808
lfemur -91.6703 11.8566 -16.7383
ltibia 85.2307
lfoot -4.80478 -21.2006
ltoes 10.4765
239
root 9.95674 12.5841 12.1283 -155.182 -40.3871 169.266
lowerback 28.7136 -1.09944 -1.64524
upperback 7.87999 -3.39497 -2.85431
thorax -7.079 -2.10799 -1.01401
lowerneck -8.14635 -15.2362 -10.44
upperneck -5.26312 -20.9087 28.4365
head 4.25707 -10.4724 8.51648
rclavicle 4.2689e-014 -3.8266e-014
rhumerus 25.8598 -8.83897 -60.8092
rradius 123.002
rwrist -5.0678
rhand 9.34018 5.21584
rfingers 7.12502
rthumb 34.5003 -21.4555
lclavicle 4.2689e-014 -3.8266e-014
lhumerus 9.0375 -65.9264 75.5617
lradius 99.4992
lwrist -1.04448
lhand -27.7955 69.1952
lfingers 7.12502
lthumb -1.18842 -99.1717
rfemur -9.23027 1.96919 -5.05652
rtibia 83.774
rfoot -19.6718 -3.2479
rtoes -34.3213
lfemur -91.1803 11.5695 -16.7887
ltibia 85.2214
lfoot -5.20321 -20.878
ltoes 10.1676
240
root 9.95052 12.602 12.1215 -155.491 -40.1275 169.284
lowerback 29.0185 -0.883369 -1.87116
upperback 7.96005 -3.22514 -2.88811
thorax -7.12448 -2.03712 -0.970764
lowerneck -8.44887 -15.3727 -10.2938
upperneck -5.12685 -21.1248 28.3899
head 4.36489 -10.5472 8.41447
rclavicle 3.80176e-014 3.21534e-014
rhumerus 25.9041 -9.18511 -60.8339
rradius 123.371
rwrist -4.83364
rhand 10.05 4.36037
rfingers 7.12502
rthumb 35.1738 -22.1549
lclavicle 3.80176e-014 3.21534e-014
lhumerus 9.5332 -66.1441 75.217
lradius 99.4702
lwrist -0.997364
lhand -28.1879 69.1475
lfingers 7.12502
lthumb -1.5674 -99.1215
rfemur -9.19807 1.99147 -5.2588
rtibia 83.8017
rfoot -19.4756 -3.13065
rtoes -34.0515
lfemur -90.6932 11.763 -16.7903
ltibia 85.2958
lfoot -5.67535 -20.88
ltoes 9.95951
241
root 9.9563 12.589 12.1119 -155.934 -39.6955 169.423
lowerback 29.4031 -0.527894 -2.35909
upperback 7.99279 -2.95156 -2.85388
thorax -7.24539 -1.91392 -0.734792
lowerneck -8.53472 -15.4206 -10.1575
upperneck -5.14421 -21.1808 28.2611
head 4.34949 -10.5716 8.33896
rclavicle 1.226e-013 -2.38542e-014
rhumerus 25.7855 -9.44414 -60.8506
rradius 123.652
rwrist -4.45155
rhand 10.7641 4.10397
rfingers 7.12502
rthumb 35.8507 -22.2491
lclavicle 1.226e-013 -2.38542e-014
lhumerus 10.3411 -66.2719 75.0089
lradius 99.3851
lwrist -0.909736
lhand -28.0946 69.8706
lfingers 7.12502
lthumb -1.47729 -99.8452
rfemur -9.21607 2.44479 -5.26435
rtibia 83.9068
rfoot -19.1178 -3.1888
rtoes -34.0732
lfemur -90.4114 12.4828 -16.9901
ltibia 85.4831
lfoot -5.83037 -21.2146
ltoes 10.006
242
root 9.95604 12.5365 12.1239 -156.082 -39.5022 169.382
lowerback 29.5228 -0.416493 -2.54693
upperback 8.0483 -2.89152 -2.89808
thorax -7.2342 -1.89229 -0.694082
lowerneck -8.32327 -15.3734 -10.2025
upperneck -5.43851 -21.0875 28.4508
head 4.24399 -10.5707 8.44351
rclavicle -1.51076e-014 2.127e-014
rhumerus 25.6766 -9.67916 -60.9142
rradius 123.59
rwrist -4.22789
rhand 10.9337 4.69217
rfingers 7.12502
rthumb 36.0114 -21.6215
lclavicle -1.51076e-014 2.127e-014
lhumerus 10.8427 -66.2256 74.8869
lradius 99.2052
lwrist -0.886133
lhand -27.6001 70.1161
lfingers 7.12502
lthumb -0.999697 -100.093
rfemur -9.11018 2.78701 -5.37842
rtibia 84.0261
rfoot -18.9296 -3.4069
rtoes -34.2328
lfemur -90.6886 12.9458 -17.3886
ltibia 85.8011
lfoot -5.31295 -21.5408
ltoes 9.82519
243
root 9.93957 12.5541 12.133 -156.057 -39.5677 169.446
lowerback 29.4515 -0.551031 -2.36932
upperback 8.01835 -3.00713 -2.95637
thorax -7.24552 -1.94476 -0.82263
lowerneck -8.20289 -15.3055 -10.2847
upperneck -5.46138 -21.0134 28.6185
head 4.2379 -10.5477 8.5304
rclavicle -6.60959e-014 4.42296e-015
rhumerus 25.7943 -9.77821 -61.0454
rradius 123.252
rwrist -4.40444
rhand 10.9197 4.96416
rfingers 7.12502
rthumb 35.9981 -21.3528
lclavicle -6.60959e-014 4.42296e-015
lhumerus 10.721 -66.1099 74.9583
lradius 98.9448
lwrist -0.892131
lhand -27.6116 69.731
lfingers 7.12502
lthumb -1.01083 -99.7083
rfemur -9.08307 2.67099 -5.28333
rtibia 83.8594
rfoot -18.8357 -4.02795
rtoes -35.4047
lfemur -90.7378 12.9507 -17.5448
ltibia 85.8317
lfoot -5.51912 -21.6437
ltoes 11.1479
244
root 9.92876 12.5502 12.1397 -155.876 -39.5983 169.395
lowerback 29.3655 -0.639185 -2.41492
upperback 7.91039 -3.11977 -3.02238
thorax -7.3287 -1.98871 -0.831738
lowerneck -8.37344 -15.2513 -10.119
upperneck -5.10628 -20.9984 28.4029
head 4.31665 -10.4989 8.42299
rclavicle -3.1408e-014 6.03311e-014
rhumerus 25.8874 -9.92273 -61.2176
rradius 123.093
rwrist -4.75641
rhand 11.1169 4.77709
rfingers 7.12502
rthumb 36.1849 -21.4938
lclavicle -3.1408e-014 6.03311e-014
lhumerus 10.6138 -66.0732 75.0901
lradius 98.6618
lwrist -0.879236
lhand -27.9837 69.6508
lfingers 7.12502
lthumb -1.37016 -99.6262
rfemur -9.0734 2.29508 -5.18665
rtibia 83.5841
rfoot -18.3228 -6.38384
rtoes -40.2645
lfemur -91.0499 12.8968 -17.6467
ltibia 85.9681
lfoot -4.9341 -21.6621
ltoes 11.5761
